<?xml version="1.0" encoding="utf-8"?>
<!-- Generator: Adobe Illustrator 18.1.1, SVG Export Plug-In . SVG Version: 6.00 Build 0)  -->
<svg version="1.1" id="Livello_1" xmlns="http://www.w3.org/2000/svg" xmlns:xlink="http://www.w3.org/1999/xlink" x="0px" y="0px"
	 viewBox="0 0 200 60" enable-background="new 0 0 200 60" xml:space="preserve">
<g>
	<g>
		<path fill="#1B181C" d="M13.9,8.8c-0.8,0-1.7,0.2-2.5,0.6c-0.9,0.4-1.7,1-2.4,1.8c-0.7,0.8-1.3,1.8-1.8,3.1
			c-0.4,1.2-0.7,2.7-0.7,4.4c0,1.7,0.2,3.1,0.7,4.2C7.7,24,8.3,25,9,25.7c0.7,0.7,1.6,1.3,2.5,1.6c0.9,0.3,1.9,0.5,2.8,0.5
			c0.4,0,0.8,0,1.3-0.1c0,0,3-0.9,4.1-3.9l0.6,0.4c0,0-0.9,3.8-1,4.1c-0.1,0.3-0.8,0.7-1.1,0.8c-1.4,0.7-3.3,0.7-4.8,0.7
			c-1.9,0-3.6-0.3-5.1-0.8c-1.5-0.5-2.8-1.3-3.8-2.2c-1-1-1.8-2.1-2.4-3.4c-0.5-1.3-0.8-2.7-0.8-4.3c0-2.2,0.4-4.1,1.1-5.7
			c0.7-1.6,1.7-2.8,2.9-3.8c1.2-1,2.6-1.7,4.1-2.1c1.6-0.5,3.2-0.7,4.9-0.7c0.6,0,1.2,0,1.8,0.1c0.6,0.1,1.2,0.2,1.8,0.3
			c0.6,0.1,1.2,0.3,1.7,0.5c0.5,0.2,1.3,0.6,1.3,0.7l-1.5,3.6l-0.7,0c0,0-1.3-2.9-4.5-3.2L13.9,8.8z"/>
		<path fill="#1B181C" d="M25.2,13.8c0.6-1.4,1.4-2.6,2.5-3.7c1.1-1.1,2.4-1.9,4-2.5c1.6-0.6,3.3-0.9,5.2-0.9c1.7,0,3.4,0.2,4.9,0.7
			c1.5,0.5,2.8,1.2,3.9,2.1c1.1,0.9,2,2.2,2.6,3.6c0.6,1.5,1,3.2,1,5.1c0,1.6-0.3,3.1-0.9,4.5c-0.6,1.4-1.5,2.6-2.6,3.7
			c-1.1,1-2.4,1.9-3.9,2.4c-1.5,0.6-3.2,0.9-5,0.9c-1.7,0-3.3-0.2-4.9-0.6c-1.5-0.4-2.8-1.1-4-2c-1.1-0.9-2-2.1-2.7-3.6
			c-0.7-1.5-1-3.2-1-5.2C24.3,16.7,24.6,15.2,25.2,13.8z M43.5,13.9c-0.3-1.1-0.8-2.1-1.5-2.8c-0.6-0.8-1.4-1.4-2.3-1.8
			c-0.9-0.4-1.9-0.6-2.9-0.6c-1.1,0-2.1,0.3-3,0.8c-0.9,0.5-1.6,1.2-2.2,2.1c-0.6,0.9-1.1,2-1.4,3.2c-0.3,1.2-0.5,2.5-0.5,3.9
			c0,1.7,0.2,3.2,0.6,4.4c0.4,1.2,0.9,2.1,1.5,2.9c0.6,0.7,1.4,1.2,2.2,1.6c0.8,0.3,1.7,0.5,2.6,0.5c1,0,1.9-0.2,2.8-0.6
			c0.9-0.4,1.7-1,2.3-1.9c0.7-0.8,1.2-1.9,1.6-3.2c0.4-1.3,0.6-2.8,0.6-4.6C44,16.2,43.8,15,43.5,13.9z"/>
		<path fill="#1B181C" d="M54.7,11.4c0-1.4-0.1-2.8-0.2-4.2c0.4,0,0.8,0.1,1.2,0.1c0.4,0,0.9,0,1.5,0c0.5,0,1,0,1.5,0
			c0.4,0,0.8-0.1,1.2-0.1c-0.1,1.4-0.2,2.8-0.2,4.2c0,1.4-0.1,3-0.1,4.8v4.4c0,1.2,0,2.4,0,3.6c0,1.1,0,2.1,0,3c1.2,0,2.5,0,3.7-0.1
			c1.2-0.1,2.5-0.2,3.8-0.3c0,0.2-0.1,0.5-0.1,0.6c0,0.2,0,0.5,0,0.8c0,0.3,0,0.6,0,0.8c0,0.2,0.1,0.4,0.1,0.5c-0.6,0-1.3,0-2.2,0
			c-0.9,0-2,0-3.6,0c-1.3,0-2.4,0-3.2,0c-0.8,0-1.5,0-2,0c-0.5,0-0.9,0-1.1,0c-0.3,0-0.5,0-0.6,0c0.1-1.3,0.2-2.7,0.2-4.1
			c0-1.4,0.1-3,0.1-4.8v-4.4C54.7,14.3,54.7,12.8,54.7,11.4z"/>
		<path fill="#1B181C" d="M74.6,10.7c0-0.5,0-0.9-0.1-1.1c-0.3,0-0.7,0-1.2,0c-0.5,0-1,0-1.5,0.1c-0.5,0-1.1,0.1-1.7,0.1
			C69.5,9.9,69,10,68.5,10c0-0.2,0.1-0.5,0.1-0.7c0-0.2,0-0.5,0-0.7c0-0.2,0-0.5,0-0.7c0-0.2-0.1-0.5-0.1-0.7c0.7,0,1.4,0,2,0.1
			c0.6,0,1.2,0,1.8,0c0.6,0,1.3,0,2,0c0.7,0,1.6,0,2.6,0c1,0,1.9,0,2.6,0c0.7,0,1.4,0,2,0c0.6,0,1.2,0,1.8,0c0.6,0,1.2,0,1.9-0.1
			c0,0.2-0.1,0.5-0.1,0.7c0,0.2,0,0.5,0,0.7c0,0.2,0,0.5,0,0.7c0,0.2,0.1,0.5,0.1,0.7c-0.4-0.1-0.9-0.1-1.5-0.2
			c-0.5-0.1-1.1-0.1-1.6-0.1c-0.5,0-1-0.1-1.5-0.1c-0.5,0-0.9,0-1.2,0c0,0.1,0,0.3,0,0.5c0,0.2,0,0.4,0,0.7v1.7v8.1
			c0,1.8,0,3.4,0.1,4.8c0,1.4,0.1,2.8,0.2,4.1c-0.4,0-0.8-0.1-1.2-0.1c-0.4,0-0.9,0-1.5,0c-0.5,0-1,0-1.5,0c-0.4,0-0.8,0-1.2,0.1
			c0.1-1.3,0.2-2.7,0.2-4.1c0-1.4,0.1-3,0.1-4.8v-8.1C74.6,11.8,74.6,11.2,74.6,10.7z"/>
		<path fill="#1B181C" d="M88.8,13.8c0.6-1.4,1.4-2.6,2.5-3.7c1.1-1.1,2.4-1.9,4-2.5c1.6-0.6,3.3-0.9,5.2-0.9c1.7,0,3.4,0.2,4.9,0.7
			c1.5,0.5,2.8,1.2,3.9,2.1c1.1,0.9,2,2.2,2.6,3.6c0.6,1.5,1,3.2,1,5.1c0,1.6-0.3,3.1-0.9,4.5c-0.6,1.4-1.5,2.6-2.6,3.7
			c-1.1,1-2.4,1.9-4,2.4c-1.5,0.6-3.2,0.9-5,0.9c-1.7,0-3.3-0.2-4.9-0.6c-1.5-0.4-2.8-1.1-4-2c-1.1-0.9-2-2.1-2.7-3.6
			c-0.7-1.5-1-3.2-1-5.2C87.9,16.7,88.2,15.2,88.8,13.8z M107,13.9c-0.3-1.1-0.8-2.1-1.5-2.8c-0.6-0.8-1.4-1.4-2.3-1.8
			c-0.9-0.4-1.9-0.6-2.9-0.6c-1.1,0-2.1,0.3-3,0.8c-0.9,0.5-1.6,1.2-2.2,2.1c-0.6,0.9-1.1,2-1.4,3.2c-0.3,1.2-0.5,2.5-0.5,3.9
			c0,1.7,0.2,3.2,0.6,4.4c0.4,1.2,0.9,2.1,1.5,2.9c0.6,0.7,1.4,1.2,2.2,1.6c0.8,0.3,1.7,0.5,2.6,0.5c1,0,1.9-0.2,2.8-0.6
			c0.9-0.4,1.7-1,2.3-1.9c0.7-0.8,1.2-1.9,1.6-3.2c0.4-1.3,0.6-2.8,0.6-4.6C107.6,16.2,107.4,15,107,13.9z"/>
		<path fill="#1B181C" d="M120.6,7.3c0.6,0,1.3,0,2-0.1c0.8-0.1,1.7-0.1,2.8-0.1c0.8,0,1.5,0,2.1,0.1c0.6,0,1.1,0.1,1.5,0.2
			c0.4,0.1,0.8,0.2,1.1,0.3c0.3,0.1,0.6,0.3,0.9,0.5c0.7,0.5,1.2,1.1,1.6,1.8c0.4,0.7,0.6,1.5,0.6,2.5c0,1.6-0.4,2.9-1.3,3.8
			c-0.9,1-2.1,1.7-3.8,2.1c1,1.8,2.2,3.7,3.4,5.5c1.2,1.8,2.4,3.6,3.6,5.4c-0.5,0-1-0.1-1.5-0.1c-0.5,0-1,0-1.5,0c-0.5,0-1,0-1.5,0
			c-0.5,0-1,0-1.5,0.1l-5.9-10.2H123v1.3c0,1.8,0,3.4,0.1,4.8c0,1.4,0.1,2.8,0.2,4.1c-0.4,0-0.8-0.1-1.2-0.1c-0.4,0-0.9,0-1.5,0
			c-0.5,0-1,0-1.5,0c-0.4,0-0.8,0-1.2,0.1c0.1-1.3,0.2-2.7,0.2-4.1c0-1.4,0.1-3,0.1-4.8v-4.4c0-1.8,0-3.4-0.1-4.8
			c0-1.4-0.1-2.6-0.2-4c0,0,0.1,0,0.1,0L120.6,7.3z M127.9,11c-0.2-0.6-0.5-1-0.9-1.3c-0.4-0.3-0.9-0.5-1.6-0.6
			C124.8,9.1,124,9,123.1,9c-0.1,2.9-0.1,5.9-0.1,8.8c0.1,0,0.3,0,0.4,0c0.1,0,0.2,0,0.3,0c1.4,0,2.5-0.4,3.3-1.1
			c0.8-0.8,1.1-1.9,1.1-3.5C128.2,12.3,128.1,11.6,127.9,11z"/>
		<path fill="#1B181C" d="M143.6,10.7c0-0.5,0-0.9-0.1-1.1c-0.3,0-0.7,0-1.2,0c-0.5,0-1,0-1.5,0.1c-0.5,0-1.1,0.1-1.7,0.1
			c-0.6,0.1-1.1,0.1-1.6,0.2c0-0.2,0.1-0.5,0.1-0.7c0-0.2,0-0.5,0-0.7c0-0.2,0-0.5,0-0.7c0-0.2-0.1-0.5-0.1-0.7c0.7,0,1.4,0,2,0.1
			c0.6,0,1.2,0,1.8,0c0.6,0,1.3,0,2,0c0.7,0,1.6,0,2.6,0c1,0,1.9,0,2.6,0c0.7,0,1.4,0,2,0c0.6,0,1.2,0,1.8,0c0.6,0,1.2,0,1.9-0.1
			c0,0.2-0.1,0.5-0.1,0.7c0,0.2-0.1,0.5-0.1,0.7c0,0.2,0,0.5,0.1,0.7c0,0.2,0.1,0.5,0.1,0.7c-0.4-0.1-0.9-0.1-1.5-0.2
			c-0.5-0.1-1.1-0.1-1.6-0.1c-0.5,0-1-0.1-1.5-0.1c-0.5,0-0.9,0-1.2,0c0,0.1,0,0.3,0,0.5c0,0.2,0,0.4,0,0.7v1.7v8.1
			c0,1.8,0,3.4,0.1,4.8c0,1.4,0.1,2.8,0.2,4.1c-0.4,0-0.8-0.1-1.2-0.1c-0.4,0-0.9,0-1.5,0c-0.5,0-1,0-1.5,0c-0.4,0-0.8,0-1.2,0.1
			c0.1-1.3,0.2-2.7,0.2-4.1c0-1.4,0.1-3,0.1-4.8v-8.1C143.6,11.8,143.6,11.2,143.6,10.7z"/>
		<path fill="#1B181C" d="M160,11.4c0-1.4-0.1-2.8-0.2-4.2c0.4,0,0.8,0.1,1.2,0.1c0.4,0,0.9,0,1.5,0c0.5,0,1,0,1.5,0
			c0.4,0,0.8-0.1,1.2-0.1c-0.1,1.4-0.2,2.8-0.2,4.2c0,1.4-0.1,3-0.1,4.8v4.4c0,1.8,0,3.4,0.1,4.8c0,1.4,0.1,2.8,0.2,4.1
			c-0.4,0-0.8-0.1-1.2-0.1c-0.4,0-0.9,0-1.5,0c-0.5,0-1,0-1.5,0c-0.4,0-0.8,0-1.2,0.1c0.1-1.3,0.2-2.7,0.2-4.1c0-1.4,0.1-3,0.1-4.8
			v-4.4C160,14.3,160,12.8,160,11.4z"/>
	</g>
	<g>
		<path fill="#1B181C" d="M83.8,41.8c-0.6,0.9-1.2,1.8-1.7,2.7c-0.3,0.4-0.6,0.9-0.8,1.3c-0.1,0.2-0.2,0.5-0.2,0.7
			c0,0.2,0,0.3,0,0.4c0.1,0.1,0.3,0.1,0.5,0c0.2,0,0.5-0.1,0.7-0.2c0.5-0.2,0.9-0.4,1.3-0.7c0.8-0.6,1.6-1.3,2.2-2.1
			c0.1-0.2,0.4-0.2,0.5-0.1c0.2,0.1,0.2,0.4,0.1,0.5c-0.3,0.4-0.5,0.8-0.7,1.2c-0.2,0.4-0.5,0.9-0.8,1.3l-1.5,2.6
			c-0.5,0.9-1,1.7-1.5,2.6c-0.6,0.8-1.2,1.6-1.8,2.4c0.3-0.9,0.7-1.9,1.1-2.8c0.5-0.9,1-1.7,1.5-2.6l1.5-2.6
			c0.3-0.4,0.5-0.8,0.7-1.3c0.2-0.4,0.5-0.9,0.8-1.3l0.6,0.5c-0.7,0.9-1.5,1.7-2.4,2.3c-0.5,0.3-0.9,0.6-1.5,0.8
			c-0.3,0.1-0.5,0.2-0.9,0.2c-0.3,0-0.7,0.1-1.1-0.2c-0.2-0.1-0.3-0.4-0.3-0.6c0-0.2,0-0.4,0-0.5c0.1-0.3,0.1-0.6,0.3-0.8
			c0.2-0.5,0.5-1,0.8-1.5C82.1,43.2,82.9,42.4,83.8,41.8z"/>
		<path fill="#1B181C" d="M173.5,41.6c-0.6,0.9-1.2,1.8-1.7,2.7c-0.3,0.4-0.6,0.9-0.8,1.3c-0.1,0.2-0.2,0.5-0.2,0.7
			c0,0.2,0,0.3,0,0.4c0.1,0,0.3,0.1,0.5,0c0.2,0,0.5-0.1,0.7-0.2c0.5-0.2,0.9-0.4,1.3-0.7c0.8-0.6,1.6-1.3,2.2-2.1
			c0.1-0.2,0.4-0.2,0.5-0.1c0.2,0.1,0.2,0.4,0.1,0.5c-0.3,0.4-0.5,0.8-0.7,1.2c-0.2,0.4-0.5,0.9-0.8,1.3l-1.5,2.6
			c-0.5,0.8-1,1.7-1.5,2.6c-0.6,0.8-1.2,1.6-1.8,2.4c0.3-0.9,0.7-1.9,1.1-2.8c0.5-0.9,1-1.7,1.5-2.6l1.5-2.6
			c0.3-0.4,0.5-0.8,0.7-1.3c0.2-0.4,0.5-0.9,0.8-1.3l0.6,0.5c-0.7,0.9-1.5,1.7-2.4,2.3c-0.5,0.3-0.9,0.6-1.5,0.8
			c-0.3,0.1-0.5,0.2-0.9,0.2c-0.3,0-0.7,0.1-1.1-0.2c-0.2-0.1-0.3-0.4-0.3-0.6c0-0.2,0-0.4,0-0.5c0.1-0.3,0.1-0.6,0.3-0.9
			c0.2-0.5,0.5-1,0.8-1.5C171.8,43,172.6,42.2,173.5,41.6z"/>
		<path fill="#1B181C" d="M90.9,43.3c-0.2-0.2-0.4-0.1-0.6,0.1c-0.2,0.1-0.3,0.3-0.5,0.5c-0.4,0.3-0.7,0.6-0.9,1
			c-0.3,0.4-0.4,0.8-0.5,1.2c-0.1,0.4,0,0.9,0.2,1c0.1,0.1,0.6,0,0.9-0.3c0.4-0.3,0.7-0.6,1-1c0.3-0.4,0.6-0.8,0.6-1.1
			c0.1-0.2,0.1-0.4,0.1-0.6c0-0.2-0.2-0.4-0.4-0.4c0.1-0.1,0.3-0.1,0.4-0.1c0.2,0,0.3,0.1,0.4,0.3c0.2,0.2,0.3,0.6,0.3,0.9
			c-0.1,0.6-0.5,1.1-0.8,1.5c-0.3,0.4-0.7,0.8-1.1,1.1c-0.2,0.2-0.5,0.3-0.8,0.4c-0.3,0.1-0.7,0.1-1-0.1c-0.3-0.2-0.5-0.6-0.5-0.9
			c-0.1-0.3,0-0.6,0-0.9c0.1-0.5,0.3-1.1,0.6-1.5c0.3-0.4,0.7-0.9,1.1-1.2c0.2-0.1,0.5-0.2,0.8-0.3c0.1,0,0.3,0,0.4,0
			C90.7,43.1,90.8,43.2,90.9,43.3z"/>
		<path fill="#1B181C" d="M136.3,43.3c-0.2-0.2-0.4-0.1-0.6,0.1c-0.2,0.1-0.3,0.3-0.5,0.5c-0.3,0.3-0.7,0.6-0.9,1
			c-0.3,0.4-0.4,0.8-0.5,1.2c-0.1,0.4,0,0.9,0.2,1c0.1,0.1,0.6,0,0.9-0.3c0.4-0.3,0.7-0.6,1-1c0.3-0.4,0.6-0.8,0.6-1.1
			c0.1-0.2,0.1-0.4,0.1-0.6c0-0.2-0.2-0.4-0.4-0.4c0.1-0.1,0.3-0.1,0.4-0.1c0.1,0,0.3,0.1,0.4,0.3c0.2,0.2,0.3,0.6,0.3,0.9
			c-0.1,0.6-0.5,1.1-0.8,1.5c-0.3,0.4-0.7,0.8-1.1,1.1c-0.2,0.2-0.5,0.3-0.8,0.4c-0.3,0.1-0.7,0.1-1-0.1c-0.3-0.2-0.5-0.6-0.5-0.9
			c-0.1-0.3,0-0.6,0-0.9c0.1-0.5,0.3-1.1,0.6-1.5c0.3-0.4,0.7-0.9,1.1-1.2c0.2-0.1,0.5-0.2,0.8-0.3c0.1,0,0.3,0,0.4,0
			C136.1,43.1,136.2,43.2,136.3,43.3z"/>
		<path fill="#1B181C" d="M95.8,42.9c-0.4,0.4-0.6,0.8-0.8,1.2c-0.1,0.2-0.2,0.5-0.4,0.6c-0.1,0.2-0.3,0.4-0.4,0.6
			c-0.2,0.4-0.4,0.8-0.5,1.2c0,0.2,0,0.4,0.1,0.6c0.1,0.1,0.1,0.2,0.2,0.2c0.1,0,0.2,0,0.2-0.1c0.1,0,0.2-0.1,0.3-0.1
			c0.2-0.1,0.4-0.2,0.6-0.4c0.4-0.3,0.7-0.6,1.1-1c0.4-0.3,0.7-0.7,1.1-1.1c0.4-0.3,0.7-0.7,1.1-1c0.2-0.1,0.4-0.1,0.5,0
			c0.1,0.1,0.1,0.3,0,0.5l0,0c-0.2,0.3-0.4,0.5-0.5,0.8c-0.2,0.3-0.3,0.6-0.5,0.8c-0.4,0.5-0.8,1.1-1,1.7c0-0.7,0.2-1.4,0.4-2
			c0.1-0.3,0.3-0.6,0.5-0.9c0.2-0.3,0.4-0.6,0.6-0.9l0.6,0.5c-0.4,0.3-0.7,0.7-1.1,1c-0.3,0.3-0.7,0.7-1.1,1c-0.4,0.4-0.7,0.7-1.1,1
			c-0.2,0.2-0.4,0.3-0.7,0.4c-0.1,0.1-0.3,0.1-0.4,0.2C94.3,47.9,94.2,48,94,48c-0.2,0-0.4,0-0.6-0.2c-0.2-0.1-0.3-0.3-0.4-0.5
			c-0.1-0.3-0.1-0.6-0.1-0.9c0-0.6,0.3-1.1,0.6-1.6c0.1-0.2,0.3-0.4,0.4-0.6c0.1-0.2,0.3-0.4,0.5-0.6C94.9,43.3,95.3,43,95.8,42.9z"
			/>
		<path fill="#1B181C" d="M101.9,41.8c0,0.6,0,1.2,0,1.8c0,0.1,0,0.3-0.1,0.4c0,0.1-0.1,0.3-0.2,0.4c-0.1,0.3-0.2,0.6-0.4,0.8
			c-0.3,0.5-0.6,1-0.9,1.5c-0.3,0.5-0.5,1-0.7,1.5L99,47.9c0.4-0.8,0.9-1.5,1.4-2.2c0.5-0.7,1.1-1.4,1.7-2c0.3-0.3,0.7-0.6,1.1-0.8
			c0.4-0.2,0.8-0.4,1.2-0.6c0.4-0.2,0.8-0.3,1.3-0.4c0.4-0.1,0.9-0.1,1.3-0.1c-0.4,0.1-0.8,0.3-1.2,0.5c-0.4,0.2-0.7,0.5-1.1,0.6
			c-0.4,0.2-0.7,0.4-1.1,0.6c-0.3,0.2-0.6,0.5-0.9,0.7c-0.6,0.6-1.1,1.2-1.6,1.9c-0.5,0.7-0.9,1.4-1.3,2.1l0,0
			c-0.1,0.2-0.3,0.3-0.5,0.2c-0.2-0.1-0.2-0.3-0.2-0.5c0.2-0.5,0.5-1.1,0.7-1.6c0.3-0.5,0.6-1,0.9-1.5c0.1-0.2,0.2-0.5,0.3-0.7
			c0.1-0.1,0.1-0.3,0.1-0.4l0.2-0.4C101.5,42.9,101.7,42.4,101.9,41.8z"/>
		<path fill="#1B181C" d="M124.2,41.8c0,0.6,0,1.2,0,1.8c0,0.1,0,0.3-0.1,0.4c0,0.1-0.1,0.3-0.1,0.4c-0.1,0.3-0.2,0.6-0.4,0.8
			c-0.3,0.5-0.6,1-0.9,1.5c-0.3,0.5-0.5,1-0.7,1.5l-0.7-0.3c0.4-0.8,0.9-1.5,1.4-2.2c0.5-0.7,1.1-1.4,1.7-2c0.3-0.3,0.7-0.6,1.1-0.8
			c0.4-0.2,0.8-0.4,1.2-0.6c0.4-0.2,0.8-0.3,1.3-0.4c0.4-0.1,0.9-0.1,1.3-0.1c-0.4,0.1-0.8,0.3-1.2,0.5c-0.4,0.2-0.7,0.5-1.1,0.6
			c-0.4,0.2-0.7,0.4-1.1,0.6c-0.3,0.2-0.6,0.5-0.9,0.7c-0.6,0.6-1.1,1.2-1.6,1.9c-0.5,0.7-0.9,1.4-1.3,2.1l0,0
			c-0.1,0.2-0.3,0.3-0.5,0.2c-0.2-0.1-0.2-0.3-0.2-0.5c0.2-0.5,0.5-1.1,0.7-1.6c0.3-0.5,0.6-1,0.9-1.5c0.1-0.2,0.2-0.5,0.3-0.7
			c0.1-0.1,0.1-0.3,0.1-0.4l0.2-0.4C123.8,42.9,124,42.4,124.2,41.8z"/>
		<path fill="#1B181C" d="M112.9,41.8c-0.2,1.2-0.7,2.3-1.2,3.3c-0.2,0.5-0.5,1.1-0.8,1.6l-0.9,1.5c-0.6,1-1.2,2-1.7,3
			c-0.5,1-0.8,2.1-1,3.3l0,0c0,0.2-0.3,0.3-0.5,0.3c-0.2,0-0.3-0.3-0.3-0.5v0c0.4-1.8,1.2-3.5,2.1-5.1c0.9-1.6,2.1-3,3.4-4.3
			c0.3-0.3,0.7-0.6,1-0.9c0.4-0.3,0.8-0.6,1.2-0.8c0.2-0.1,0.5-0.2,0.8-0.2c0.3,0,0.7,0,0.9,0.3c0.1,0.1,0.1,0.1,0.2,0.2l0,0.1
			c0,0,0,0,0,0.1l0,0l0,0.1c0.1,0.2,0.1,0.4,0.1,0.5c0,0.3-0.1,0.6-0.2,0.8c-0.2,0.5-0.5,0.9-0.9,1.2c-0.4,0.3-0.8,0.6-1.2,0.8
			c-0.8,0.4-1.7,0.7-2.6,0.7c0.9-0.2,1.7-0.6,2.4-1.1c0.7-0.5,1.2-1.2,1.6-1.9c0.1-0.2,0.1-0.4,0.2-0.5c0-0.1,0-0.1,0-0.2l0-0.1l0,0
			c0,0.1,0,0,0,0l0,0c0,0,0,0,0-0.1c-0.1-0.1-0.5-0.1-0.8,0.1c-0.7,0.4-1.4,1-2,1.6c-1.3,1.2-2.4,2.6-3.3,4.1
			c-0.9,1.5-1.6,3.2-2,4.9l-0.8-0.2c0.3-1.1,0.6-2.3,1.1-3.4c0.5-1.1,1.1-2.1,1.7-3.1l0.9-1.5c0.3-0.5,0.6-1,1-1.5
			C111.9,43.9,112.5,42.9,112.9,41.8z"/>
		<path fill="#1B181C" d="M118.2,48.3c-0.2,0.2-0.6,0.3-1,0.3c-0.2,0-0.4-0.2-0.5-0.3c-0.1-0.2-0.2-0.4-0.2-0.6c0-0.8,0.2-1.4,0.4-2
			c0.1-0.3,0.2-0.6,0.4-0.9c0.2-0.3,0.3-0.6,0.5-0.8c0.4-0.5,0.8-1,1.5-1.4c0.3-0.2,0.6-0.3,1-0.3c0.2,0,0.4,0,0.6,0
			c0,0,0.2,0.1,0.3,0.2c0.1,0.1,0.2,0.2,0.3,0.3c0.3,0.4,0.2,0.8,0.2,1.2c0,0.1,0,0.2-0.1,0.3l0,0.2l0,0.1c-0.1,0.2-0.2,0.4-0.3,0.5
			c-0.5,0.5-1.1,0.8-1.8,1c-0.7,0-1.4-0.2-1.8-0.7c0.6,0.2,1.2,0.1,1.7-0.1c0.5-0.1,1-0.4,1.4-0.7c0.3-0.3,0.4-1,0.2-1.2
			c0,0,0,0-0.1-0.1c0,0,0,0-0.1,0c0,0-0.2,0-0.3,0c-0.2,0-0.5,0.1-0.7,0.3c-0.4,0.2-0.9,0.7-1.2,1.1c-0.2,0.2-0.3,0.5-0.4,0.7
			c-0.1,0.3-0.3,0.5-0.4,0.8c-0.2,0.5-0.4,1.1-0.4,1.6c0,0.2,0,0.2,0,0.3c0,0.1,0.1,0.2,0.1,0.2C117.6,48.3,117.9,48.3,118.2,48.3z"
			/>
		<path fill="#1B181C" d="M132.7,42.9c-0.6,0.1-1.1,0.2-1.6,0.4c-0.5,0.2-1,0.5-1.4,0.8c-0.5,0.3-0.9,0.6-1.4,0.9
			c-0.1,0.1-0.2,0.1-0.4,0.2l-0.1,0c0,0,0.1,0,0.1-0.1c0-0.1,0-0.1,0-0.2c0,0,0-0.1,0-0.1c0,0,0,0,0,0c0.1,0.1,0.4,0.2,0.7,0.3
			c0.5,0.2,1,0.4,1.6,0.7c0.1,0.1,0.3,0.2,0.4,0.5c0.1,0.3-0.1,0.6-0.2,0.7c-0.2,0.3-0.5,0.4-0.7,0.6c-0.4,0.4-0.9,0.7-1.5,1
			c-0.3,0.1-0.5,0.2-0.8,0.3c-0.3,0-0.6,0-0.8-0.2c0.3,0.1,0.5,0.1,0.8,0c0.3-0.1,0.5-0.2,0.7-0.4c0.4-0.3,0.9-0.7,1.2-1.1
			c0.2-0.2,0.4-0.4,0.5-0.6c0.1-0.1,0.1-0.1,0-0.1c0,0,0,0-0.1-0.1c-0.4-0.2-1-0.4-1.5-0.6c-0.3-0.1-0.5-0.2-0.8-0.5
			c0,0-0.1-0.1-0.1-0.2c0,0-0.1-0.1-0.1-0.2c0-0.1,0-0.2,0-0.3c0.1-0.2,0.2-0.2,0.3-0.2l0.1,0c0.1,0,0.2-0.1,0.4-0.2
			c0.5-0.3,1-0.5,1.5-0.8c0.5-0.3,1-0.5,1.6-0.7C131.5,42.8,132.1,42.8,132.7,42.9z"/>
		<path fill="#1B181C" d="M165.4,42.9c-0.6,0.1-1.1,0.2-1.6,0.4c-0.5,0.2-1,0.5-1.4,0.8c-0.5,0.3-0.9,0.6-1.4,0.9
			c-0.1,0.1-0.2,0.1-0.4,0.2l-0.1,0c0,0,0.1,0,0.1-0.1c0-0.1,0-0.1,0-0.2c0,0,0-0.1,0-0.1c0,0,0,0,0,0c0.1,0.1,0.4,0.2,0.7,0.3
			c0.5,0.2,1,0.4,1.6,0.7c0.1,0.1,0.3,0.2,0.4,0.5c0.1,0.3-0.1,0.6-0.2,0.7c-0.2,0.3-0.5,0.4-0.7,0.6c-0.4,0.4-0.9,0.7-1.5,1
			c-0.3,0.1-0.5,0.2-0.8,0.3c-0.3,0-0.6,0-0.8-0.2c0.3,0.1,0.5,0.1,0.8,0c0.3-0.1,0.5-0.2,0.7-0.4c0.4-0.3,0.9-0.7,1.2-1.1
			c0.2-0.2,0.4-0.4,0.5-0.6c0.1-0.1,0.1-0.1,0-0.1c0,0,0,0-0.1-0.1c-0.4-0.2-1-0.4-1.5-0.6c-0.3-0.1-0.5-0.2-0.8-0.5
			c0,0-0.1-0.1-0.1-0.2c0,0-0.1-0.1-0.1-0.2c0-0.1,0-0.2,0-0.3c0.1-0.2,0.2-0.2,0.3-0.2l0.1,0c0.1,0,0.2-0.1,0.4-0.2
			c0.5-0.3,1-0.5,1.5-0.8c0.5-0.3,1-0.5,1.6-0.7C164.3,42.8,164.8,42.8,165.4,42.9z"/>
		<path fill="#1B181C" d="M190.7,42.9c-0.6,0.1-1.1,0.2-1.6,0.4c-0.5,0.2-1,0.5-1.4,0.8c-0.5,0.3-0.9,0.6-1.4,0.9
			c-0.1,0.1-0.2,0.1-0.4,0.2l-0.1,0c0,0,0.1,0,0.1-0.1c0-0.1,0-0.1,0-0.2c0,0,0-0.1,0-0.1c0,0,0,0,0,0c0.1,0.1,0.4,0.2,0.7,0.3
			c0.5,0.2,1,0.4,1.6,0.7c0.1,0.1,0.3,0.2,0.4,0.5c0.1,0.3-0.1,0.6-0.2,0.7c-0.2,0.3-0.5,0.4-0.7,0.6c-0.4,0.4-0.9,0.7-1.5,1
			c-0.3,0.1-0.5,0.2-0.9,0.3c-0.3,0-0.6,0-0.8-0.2c0.3,0.1,0.5,0.1,0.8,0c0.3-0.1,0.5-0.2,0.7-0.4c0.4-0.3,0.9-0.7,1.3-1.1
			c0.2-0.2,0.4-0.4,0.5-0.6c0.1-0.1,0.1-0.1,0-0.1c0,0,0,0-0.1-0.1c-0.4-0.2-1-0.4-1.5-0.6c-0.3-0.1-0.5-0.2-0.8-0.5
			c0,0-0.1-0.1-0.1-0.2c0,0-0.1-0.1-0.1-0.2c0-0.1,0-0.2,0-0.3c0.1-0.2,0.2-0.2,0.3-0.2l0.1,0c0.1,0,0.2-0.1,0.4-0.2
			c0.5-0.3,1-0.5,1.5-0.8c0.5-0.3,1-0.5,1.6-0.7C189.5,42.8,190.1,42.8,190.7,42.9z"/>
		<path fill="#1B181C" d="M141.3,42.2c-0.3,0.5-0.6,1-0.8,1.5l-0.2,0.4c-0.1,0.1-0.2,0.2-0.3,0.3c-0.2,0.2-0.3,0.4-0.5,0.7
			c-0.3,0.4-0.5,0.9-0.6,1.4c-0.1,0.3-0.1,0.5-0.1,0.7c0,0.2,0,0.5,0.1,0.5c0,0-0.1-0.1-0.2,0c-0.1,0,0,0,0,0
			c0.1-0.1,0.1-0.2,0.2-0.3c0.2-0.2,0.3-0.5,0.6-0.7c0.4-0.4,0.8-0.8,1.2-1.2c0.4-0.4,0.9-0.8,1.3-1.1c0.2-0.2,0.5-0.3,0.8-0.5
			c0.1,0,0.2-0.1,0.3-0.1c0.1,0,0.3,0,0.5,0.1c0.2,0.1,0.3,0.3,0.3,0.5c0,0.1,0,0.2,0,0.3c0,0.1-0.1,0.2-0.1,0.2l0,0
			c0,0-0.1,0.1-0.2,0.2c-0.1,0.1-0.1,0.2-0.2,0.3c-0.1,0.1-0.1,0.2-0.1,0.4c-0.1,0.1-0.1,0.2-0.2,0.4c-0.1,0.3-0.2,0.5-0.3,0.8
			c0,0.1-0.1,0.3-0.1,0.4c0,0.1,0,0.1,0,0.2c0,0.1,0,0.2,0,0.2c0,0-0.1,0-0.1,0c0,0,0-0.1,0-0.1c0-0.1,0-0.1,0-0.2
			c0-0.1,0-0.3,0-0.4c0-0.3,0-0.6,0-0.9c0-0.2,0-0.3,0-0.5c0-0.2,0.1-0.3,0.2-0.4c0.1-0.1,0.1-0.3,0.2-0.4c0.1-0.1,0.2-0.3,0.3-0.4
			l-0.1,0.2c0,0,0-0.1,0-0.1c0,0,0,0.1,0.1,0.1c0.1,0,0.1,0,0.1,0c0,0-0.1,0-0.1,0c-0.2,0.1-0.4,0.2-0.6,0.4c-0.4,0.3-0.9,0.7-1.3,1
			c-0.4,0.4-0.8,0.8-1.2,1.1c-0.2,0.2-0.3,0.4-0.5,0.6c-0.1,0.1-0.2,0.2-0.3,0.4c-0.1,0.1-0.2,0.1-0.4,0.2c-0.2,0.1-0.5-0.1-0.5-0.2
			c-0.3-0.4-0.3-0.8-0.3-1.1c0-0.3,0.1-0.6,0.1-0.9c0.2-0.6,0.4-1.2,0.8-1.7c0.2-0.2,0.3-0.5,0.5-0.7c0.1-0.1,0.2-0.2,0.3-0.3
			l0.3-0.3C140.4,42.9,140.8,42.6,141.3,42.2z"/>
		<path fill="#1B181C" d="M150.1,43.4c-0.2-0.2-0.5-0.3-0.7-0.3c-0.2,0-0.4,0.1-0.6,0.2c-0.1,0.1-0.2,0.2-0.3,0.2
			c-0.1,0.1-0.2,0.1-0.3,0.2c-0.2,0.2-0.4,0.3-0.6,0.5c-0.4,0.4-0.8,0.8-1.1,1.2c-0.2,0.2-0.3,0.4-0.5,0.6c-0.2,0.2-0.3,0.4-0.3,0.6
			c-0.1,0.2-0.1,0.5-0.1,0.6c0,0.1,0,0.1,0,0.1c0,0,0,0,0.1,0c0.4-0.1,0.9-0.4,1.3-0.7c0.9-0.6,1.7-1.4,2.5-2.1
			c0.2-0.1,0.4-0.1,0.5,0c0.1,0.1,0.1,0.4,0,0.5c-0.2,0.2-0.3,0.4-0.5,0.6c-0.1,0.2-0.3,0.4-0.5,0.6c-0.2,0.2-0.3,0.4-0.5,0.7
			c-0.1,0.2-0.3,0.5-0.3,0.7c-0.1-0.6,0.1-1.2,0.2-1.7l0.2-0.4c0-0.1,0.1-0.2,0.2-0.4c0.2-0.2,0.3-0.5,0.5-0.7l0.6,0.5
			c-0.8,0.8-1.6,1.5-2.6,2.2c-0.5,0.3-1,0.6-1.6,0.8c-0.2,0-0.4,0.1-0.7-0.1c-0.2-0.2-0.3-0.4-0.4-0.6c-0.1-0.4,0-0.7,0.1-1
			c0-0.1,0-0.1,0.1-0.2c0-0.1,0.1-0.2,0.1-0.2c0.1-0.1,0.2-0.3,0.2-0.4c0.2-0.2,0.3-0.5,0.5-0.7c0.4-0.4,0.8-0.8,1.2-1.2
			c0.2-0.2,0.4-0.4,0.6-0.6c0.1-0.1,0.2-0.2,0.3-0.3c0.1-0.1,0.3-0.1,0.4-0.2c0.3-0.1,0.7-0.1,1,0C149.7,42.9,149.9,43.1,150.1,43.4
			z"/>
		<path fill="#1B181C" d="M157.8,36.7c-0.3,0.6-0.5,1.2-0.8,1.8l-1.1,1.5c-0.7,1-1.5,2.1-2.2,3.1c-0.7,1-1.3,2.1-1.9,3.3
			c-0.3,0.6-0.5,1.1-0.7,1.7c-0.3,0.6-0.5,1.1-0.7,1.8c-0.2-0.6-0.1-1.3,0-2c0.2-0.6,0.4-1.2,0.7-1.8c0.5-1.2,1.2-2.3,1.9-3.4
			c0.7-1.1,1.5-2.1,2.2-3.1l1.1-1.5C156.8,37.6,157.3,37.1,157.8,36.7z"/>
		<path fill="#1B181C" d="M184.5,36.5c-0.3,0.6-0.5,1.2-0.8,1.8l-1.1,1.5c-0.7,1-1.5,2.1-2.2,3.1c-0.7,1-1.3,2.1-1.9,3.3
			c-0.3,0.6-0.5,1.1-0.7,1.7c-0.3,0.6-0.5,1.1-0.7,1.8c-0.2-0.6-0.1-1.3,0-2c0.2-0.6,0.4-1.2,0.7-1.8c0.5-1.2,1.2-2.3,1.9-3.4
			c0.7-1.1,1.5-2.1,2.2-3.1l1.1-1.5C183.5,37.4,184,36.9,184.5,36.5z"/>
		<path fill="#1B181C" d="M172.3,37c-0.2,0.6-0.5,1.2-0.7,1.7c-0.3,0.5-0.7,1-1,1.5c-0.7,1-1.3,2-2,3.1c-0.6,1-1.2,2.1-1.7,3.2
			c-0.2,0.6-0.4,1.1-0.6,1.7c-0.3,0.5-0.5,1.1-0.7,1.7c-0.2-0.6-0.1-1.3-0.1-1.9c0.2-0.6,0.4-1.2,0.6-1.8c0.5-1.2,1.1-2.3,1.7-3.3
			c0.6-1.1,1.3-2.1,2-3.1l1-1.5C171.4,37.8,171.8,37.4,172.3,37z"/>
		<path fill="#1B181C" d="M166.1,40.8c0.4,0,0.7-0.1,1-0.2c0.3,0,0.6,0,0.9,0c0.6-0.1,1.2-0.2,1.9-0.3c0.6-0.1,1.3-0.2,1.9-0.2
			c0.3,0,0.7,0,1,0c0.3,0.1,0.7,0.3,0.9,0.5c-0.3,0.1-0.7,0.2-1,0.3c-0.3,0-0.6,0-0.9,0c-0.6,0-1.2,0.1-1.9,0.2
			c-0.6,0.1-1.3,0.2-1.9,0.3c-0.3,0-0.7,0-1,0C166.7,41.3,166.4,41.1,166.1,40.8z"/>
		<path fill="#1B181C" d="M197.7,37c-0.2,0.6-0.5,1.2-0.7,1.7c-0.3,0.5-0.7,1-1,1.5c-0.7,1-1.3,2-2,3.1c-0.6,1-1.2,2.1-1.7,3.2
			c-0.2,0.6-0.4,1.1-0.6,1.7c-0.3,0.5-0.5,1.1-0.7,1.7c-0.2-0.6-0.1-1.3-0.1-1.9c0.2-0.6,0.4-1.2,0.6-1.8c0.5-1.2,1.1-2.3,1.7-3.3
			c0.6-1.1,1.3-2.1,2-3.1l1-1.5C196.8,37.8,197.2,37.4,197.7,37z"/>
		<path fill="#1B181C" d="M191.6,40.8c0.3,0,0.7-0.1,1-0.2c0.3,0,0.6,0,0.9,0c0.6-0.1,1.2-0.2,1.9-0.3c0.6-0.1,1.3-0.2,1.9-0.2
			c0.3,0,0.7,0,1,0c0.3,0.1,0.7,0.3,0.9,0.5c-0.3,0.1-0.7,0.2-1,0.3c-0.3,0-0.6,0-0.9,0c-0.6,0-1.2,0.1-1.9,0.2
			c-0.6,0.1-1.3,0.2-1.9,0.3c-0.3,0-0.7,0-1,0C192.1,41.3,191.8,41.1,191.6,40.8z"/>
		<path fill="#1B181C" d="M183.5,43.1c0,0.3-0.1,0.5-0.1,0.7c-0.1,0.2-0.3,0.3-0.4,0.5c-0.3,0.3-0.5,0.7-0.7,1.1
			c-0.2,0.4-0.4,0.7-0.5,1.1c-0.1,0.2-0.1,0.4-0.1,0.6c-0.1,0.2-0.3,0.4-0.4,0.6c-0.2-0.2-0.3-0.4-0.4-0.7c0-0.2,0.1-0.5,0.1-0.7
			c0.1-0.5,0.4-0.9,0.6-1.3c0.2-0.4,0.5-0.7,0.8-1.1l0.4-0.5C183.1,43.3,183.3,43.2,183.5,43.1z"/>
		<path fill="#1B181C" d="M184.6,40.4c0.1-0.1,0.2-0.1,0.3-0.1c0.1,0,0.2,0,0.3,0c0.1,0,0.3-0.1,0.2,0c0,0.1-0.1,0.3-0.4,0.7
			c0,0-0.1,0.1-0.1,0.1c-0.4,0.3-0.5,0.4-0.6,0.4c-0.1,0,0-0.2,0-0.2c0-0.1,0-0.2,0.1-0.3c0-0.1,0.1-0.2,0.1-0.4
			C184.6,40.4,184.6,40.4,184.6,40.4z"/>
		<path fill="#1B181C" d="M185,41.2c-0.1,0.1-0.2,0.1-0.3,0.1c-0.1,0-0.2,0-0.3,0.1c-0.1,0-0.3,0.1-0.2,0c0-0.1,0.1-0.3,0.4-0.7
			c0,0,0.1-0.1,0.1-0.1c0.3-0.3,0.5-0.4,0.6-0.4c0.1,0,0,0.2,0,0.2c0,0.1,0,0.2-0.1,0.3c0,0.1-0.1,0.2-0.1,0.4
			C185.1,41.2,185.1,41.2,185,41.2z"/>
	</g>
</g>
</svg>
